<?xml version="1.0" encoding="UTF-8"?>
<svg xmlns="http://www.w3.org/2000/svg" viewBox="0 0 2659.620 250.000" role="img" aria-label="Vincos logo">
  <title>Vincos logo, Tamrin wordmark</title>
  <desc>Approved Vincos symbol paired with VINCOS typeset in Tamrin Regular and converted to outlines. No tagline.</desc>
  <g fill="#FFFFFF">
    <path d="M 33 32 L 33 134 L 441 134 L 445 135 L 450 138 L 452 140 L 455 145 L 456 148 L 456 154 L 453 161 L 331 284 L 217 397 L 209 408 L 203 420 L 201 426 L 199 437 L 199 452 L 201 462 L 204 470 L 213 484 L 222 493 L 230 499 L 240 504 L 253 508 L 259 509 L 618 509 L 632 507 L 649 502 L 668 493 L 679 486 L 689 478 L 817 349 L 829 338 L 838 328 L 846 321 L 855 315 L 866 310 L 876 307 L 889 305 L 1178 305 L 1178 206 L 858 206 L 841 209 L 825 214 L 802 225 L 790 233 L 784 238 L 619 404 L 612 409 L 606 412 L 593 416 L 585 417 L 372 417 L 365 414 L 359 408 L 357 405 L 356 401 L 356 396 L 359 389 L 394 355 L 403 345 L 614 135 L 622 124 L 628 110 L 630 100 L 630 82 L 627 70 L 622 60 L 617 53 L 614 50 L 613 50 L 609 46 L 602 41 L 592 36 L 586 34 L 576 32 Z" transform="matrix(0.52410901 0 0 0.52410901 -17.29559748 -16.77148847)"/>
    <g transform="translate(705.105 0)">
    <path d="M228.75166002656042 250.0 374.16998671978746 0.0H333.0013280212483L208.16733067729083 214.14342629482073L83.66533864541833 0.0H0.0L145.7503320053121 250.0Z"/>
    <path d="M414.6746347941567 250.0H486.05577689243023V0.0H414.6746347941567Z"/>
    <path d="M552.7888446215139 0.0V250.0H588.6454183266932V58.764940239043824L795.152722443559 250.0H874.1699867197874V0.0H838.3134130146082V192.89508632138114L630.4780876494024 0.0Z"/>
    <path d="M1105.245683930943 0.0C1015.9362549800796 0.0 926.6268260292164 35.8565737051793 926.6268260292164 125.16600265604251C926.6268260292164 214.14342629482073 1015.9362549800796 250.0 1105.245683930943 250.0C1153.0544488711819 250.0 1201.195219123506 239.7078353253652 1235.3917662682602 216.13545816733068L1191.5670650730412 185.5909694555113C1171.3147410358565 207.50332005312086 1138.1142098273572 214.14342629482073 1105.245683930943 214.14342629482073C1051.460823373174 214.14342629482073 998.00796812749 196.54714475431607 998.00796812749 125.16600265604251C998.00796812749 53.452855245683935 1051.460823373174 35.8565737051793 1105.245683930943 35.8565737051793C1138.1142098273572 35.8565737051793 1171.3147410358565 42.49667994687917 1191.5670650730412 64.40903054448873L1235.3917662682602 33.864541832669346C1201.195219123506 10.292164674634819 1153.0544488711819 0.0 1105.245683930943 0.0Z"/>
    <path d="M1447.211155378486 0.0C1357.9017264276229 0.0 1268.5922974767595 35.8565737051793 1268.5922974767595 125.16600265604251C1268.5922974767595 214.14342629482073 1357.9017264276229 250.0 1447.211155378486 250.0C1536.5205843293493 250.0 1625.8300132802124 214.14342629482073 1625.8300132802124 125.16600265604251C1625.8300132802124 35.8565737051793 1536.5205843293493 0.0 1447.211155378486 0.0ZM1447.211155378486 35.8565737051793C1500.6640106241698 35.8565737051793 1554.1168658698539 53.452855245683935 1554.1168658698539 125.16600265604251C1554.1168658698539 196.54714475431607 1500.6640106241698 214.14342629482073 1447.211155378486 214.14342629482073C1393.426294820717 214.14342629482073 1339.9734395750331 196.54714475431607 1339.9734395750331 125.16600265604251C1339.9734395750331 53.452855245683935 1393.426294820717 35.8565737051793 1447.211155378486 35.8565737051793Z"/>
    <path d="M1713.1474103585656 18.592297476759654C1689.5750332005312 31.872509960159363 1675.2988047808763 51.12881806108899 1675.6308100929614 72.04515272244356C1675.2988047808763 88.64541832669323 1678.9508632138113 101.59362549800798 1685.922974767596 111.2217795484728C1708.4993359893756 142.09827357237717 1763.2802124833995 141.76626826029218 1809.4289508632137 144.42231075697214C1849.269588313413 146.41434262948206 1882.4701195219122 150.398406374502 1883.134130146082 178.61885790172641C1883.134130146082 205.1792828685259 1850.2656042496678 214.8074369189907 1812.4169986719785 214.47543160690572C1768.9243027888444 214.14342629482073 1718.7915006640105 200.863213811421 1703.8512616201858 185.5909694555113L1660.0265604249666 216.13545816733068C1694.223107569721 239.7078353253652 1754.6480743691898 250.0 1790.172642762284 250.0C1835.657370517928 250.0 1893.7583001328019 250.0 1927.2908366533864 228.75166002656042C1943.891102257636 218.12749003984064 1954.5152722443559 202.19123505976097 1954.5152722443559 178.61885790172641C1954.5152722443559 150.730411686587 1941.2350597609561 134.7941567065073 1921.6467463479414 125.83001328021248C1893.426294820717 112.54980079681275 1852.2576361221777 112.54980079681275 1817.0650730411685 110.2257636122178C1778.5524568393093 107.23771580345286 1747.011952191235 101.261620185923 1747.3439575033199 71.38114209827359C1747.3439575033199 45.1527224435591 1779.8804780876492 34.86055776892431 1815.4050464807435 36.520584329349276C1847.2775564409028 37.51660026560427 1882.138114209827 48.140770252324046 1898.074369189907 64.40903054448873L1941.899070385126 33.864541832669346C1907.7025232403716 10.292164674634819 1847.2775564409028 0.0 1790.172642762284 0.0C1760.2921646746347 0.0 1733.39973439575 7.304116865869872 1713.1474103585656 18.592297476759654Z"/>
    </g>
  </g>
</svg>
